<svg t="1676297676538" class="icon" viewBox="0 0 1024 1024" version="1.1" xmlns="http://www.w3.org/2000/svg" p-id="3254" width="16" height="16">
	<path d="M483.2 483.2H243.2C108.8 483.2 3.2 374.4 3.2 243.2S112 3.2 243.2 3.2s240 108.8 240 240v240zM240 64C144 64 64 144 64 240S144 416 240 416H416V240c3.2-96-76.8-176-176-176zM784 483.2H544V243.2C544 108.8 652.8 3.2 784 3.2S1024 112 1024 243.2s-108.8 240-240 240z m-179.2-64h176c96 0 176-80 176-176S880 64 784 64 608 144 608 240v179.2zM240 1024C105.6 1024 0 915.2 0 784S108.8 544 240 544H480v240c3.2 131.2-105.6 240-240 240z m0-419.2c-96 0-176 80-176 176s80 176 176 176 176-80 176-176v-176H240zM784 1024c-134.4 0-240-108.8-240-240V544h240c134.4 0 240 108.8 240 240S915.2 1024 784 1024z m-179.2-419.2v176c0 96 80 176 176 176s176-80 176-176-80-176-176-176h-176z" fill="#1296db" p-id="3255"></path>
</svg>