<svg t="1676297718538" class="icon" viewBox="0 0 1024 1024" version="1.1" xmlns="http://www.w3.org/2000/svg" p-id="5302" width="16" height="16">
	<path d="M348.820645 532.48L443.953548 627.612903c8.588387 8.588387 21.80129 9.249032 31.710968 1.981936l222.637419-175.070968c10.570323-7.927742 11.891613-23.122581 3.963871-33.692903-7.927742-10.570323-23.122581-11.891613-33.692903-3.963871L463.112258 578.725161 382.513548 498.126452c-9.249032-9.249032-24.443871-9.249032-33.692903 0-9.249032 9.909677-9.249032 24.443871 0 34.353548z" p-id="5303" fill="#1296db"></path>
	<path d="M247.741935 197.532903l6.606452 23.783226h524.552258c13.212903 0 23.783226 10.570323 23.783226 23.783226v524.552258c0 13.212903-10.570323 23.783226-23.783226 23.783226H254.348387c-13.212903 0-23.783226-10.570323-23.783226-23.783226V245.099355c0-13.212903 10.570323-23.783226 23.783226-23.783226l6.606452-23.783226-6.606452-23.783226c-39.63871 0-71.349677 31.710968-71.349677 71.349678v524.552258c0 39.63871 31.710968 71.349677 71.349677 71.349677h524.552258c39.63871 0 71.349677-31.710968 71.349678-71.349677V245.099355c0-39.63871-31.710968-71.349677-71.349678-71.349678H254.348387v23.783226h-6.606452z" p-id="5304" fill="#1296db"></path>
</svg>